<svg width="980" height="551" xmlns="http://www.w3.org/2000/svg" xmlns:xlink="http://www.w3.org/1999/xlink">
<path fill="#ff595e" d="M 323.03 83.31 Q 323.03 83.31 317.16 84.62 311.29 85.94 302.95 87.18 294.60 88.43 286.66 91.74 278.71 95.05 274.32 100.93 269.94 106.81 269.78 113.15 269.62 119.50 273.10 123.52 276.59 127.53 282.13 129.21 287.68 130.88 293.48 128.76 299.28 126.65 303.18 120.03 307.08 113.41 306.89 106.29 306.70 99.17 303.27 93.17 299.85 87.16 295.08 83.60 290.31 80.03 284.98 78.55 279.64 77.07 274.34 77.37 269.04 77.67 265.82 78.23 262.60 78.79 260.68 78.40 258.77 78.01 258.77 78.00 258.77 78.00 258.77 77.99 258.77 77.99 260.34 76.46 261.91 74.92 265.38 74.30 268.85 73.67 274.76 73.45 280.68 73.22 286.67 75.02 292.66 76.81 297.96 80.97 303.26 85.13 306.95 92.01 310.64 98.90 310.61 107.04 310.58 115.18 305.82 122.61 301.06 130.05 294.01 132.37 286.97 134.68 280.38 132.48 273.79 130.27 269.82 125.14 265.85 120.02 266.23 112.41 266.61 104.79 271.78 98.16 276.95 91.53 285.47 88.00 293.99 84.48 302.53 83.21 311.07 81.94 317.05 82.62 323.03 83.29 323.03 83.30 Z" data-drauu_index="0"></path>
</svg>